<?xml version="1.0" encoding="utf-8"?>
<!-- Generator: Adobe Illustrator 16.0.0, SVG Export Plug-In . SVG Version: 6.00 Build 0)  -->
<!DOCTYPE svg PUBLIC "-//W3C//DTD SVG 1.1//EN" "http://www.w3.org/Graphics/SVG/1.1/DTD/svg11.dtd">
<svg version="1.1" id="Layer_1" xmlns="http://www.w3.org/2000/svg" xmlns:xlink="http://www.w3.org/1999/xlink" x="0px" y="0px"
	 width="367.919px" height="367.92px" viewBox="0 0 367.919 367.92" enable-background="new 0 0 367.919 367.92"
	 xml:space="preserve">
<g>
	<defs>
		<rect id="SVGID_1_" width="367.919" height="367.92"/>
	</defs>
	<clipPath id="SVGID_2_">
		<use xlink:href="#SVGID_1_"  overflow="visible"/>
	</clipPath>
	<path clip-path="url(#SVGID_2_)" fill="#FFFFFF" d="M5.138,135.392l164.456,63.192l71.064,164.512
		c1.271,2.937,4.168,4.824,7.344,4.824c0.136,0,0.264,0,0.4-0.008c3.337-0.168,6.208-2.383,7.224-5.561l112-352
		c0.08-0.248,0.056-0.504,0.104-0.76c0.097-0.448,0.169-0.88,0.185-1.336c0.016-0.448-0.008-0.872-0.064-1.312
		c-0.056-0.424-0.12-0.832-0.248-1.248c-0.136-0.456-0.319-0.872-0.527-1.296c-0.112-0.232-0.152-0.48-0.288-0.704
		c-0.088-0.144-0.232-0.24-0.336-0.376c-0.265-0.368-0.576-0.688-0.904-1.016s-0.656-0.632-1.032-0.896
		c-0.136-0.096-0.224-0.232-0.359-0.312c-0.225-0.136-0.473-0.168-0.704-0.28c-0.44-0.216-0.872-0.4-1.337-0.536
		c-0.392-0.104-0.775-0.16-1.176-0.208c-0.472-0.056-0.928-0.088-1.399-0.064c-0.44,0.024-0.864,0.112-1.296,0.216
		c-0.272,0.064-0.552,0.04-0.824,0.136l-352,120c-3.184,1.072-5.352,4.04-5.416,7.408C-0.062,131.136,1.986,134.184,5.138,135.392
		 M246.858,337.113l-61.761-142.978L342.402,36.824L246.858,337.113z M330.01,26.592L173.618,182.984L31.474,128.368L330.01,26.592z
		"/>
	<path clip-path="url(#SVGID_2_)" fill="#FFFFFF" d="M8.002,367.92c2.048,0,4.096-0.784,5.656-2.344l112-112
		c3.128-3.128,3.128-8.185,0-11.313c-3.128-3.128-8.184-3.128-11.312,0l-112,112c-3.128,3.128-3.128,8.185,0,11.313
		C3.906,367.136,5.954,367.92,8.002,367.92"/>
	<path clip-path="url(#SVGID_2_)" fill="#FFFFFF" d="M146.346,298.264l-56,56c-3.128,3.128-3.128,8.185,0,11.313
		c1.56,1.56,3.608,2.344,5.656,2.344c2.048,0,4.096-0.784,5.657-2.344l56-56c3.127-3.128,3.127-8.185,0-11.313
		C154.53,295.136,149.474,295.136,146.346,298.264"/>
	<path clip-path="url(#SVGID_2_)" fill="#FFFFFF" d="M8.002,279.92c2.048,0,4.096-0.784,5.656-2.344l56-56
		c3.128-3.128,3.128-8.185,0-11.313c-3.128-3.128-8.184-3.128-11.312,0l-56,56c-3.128,3.128-3.128,8.185,0,11.313
		C3.906,279.136,5.954,279.92,8.002,279.92"/>
</g>
</svg>
